{
    "asset" : {
        "generator" : "Khronos glTF Blender I/O v1.4.40",
        "version" : "2.0"
    },
    "scene" : 0,
    "scenes" : [
        {
            "name" : "Scene",
            "nodes" : [
                0
            ]
        }
    ],
    "nodes" : [
        {
            "mesh" : 0,
            "name" : "Sillon test",
            "rotation" : [
                0.7071068286895752,
                0,
                0,
                0.7071067094802856
            ]
        }
    ],
    "materials" : [
        {
            "doubleSided" : true,
            "name" : "sofa navy blue",
            "pbrMetallicRoughness" : {
                "baseColorTexture" : {
                    "index" : 0,
                    "texCoord" : 0
                },
                "metallicFactor" : 0
            }
        },
        {
            "doubleSided" : true,
            "name" : "color estructura 2",
            "normalTexture" : {
                "index" : 1,
                "texCoord" : 0
            },
            "pbrMetallicRoughness" : {
                "baseColorTexture" : {
                    "index" : 2,
                    "texCoord" : 0
                },
                "metallicFactor" : 0
            }
        }
    ],
    "meshes" : [
        {
            "name" : "Sillon test",
            "primitives" : [
                {
                    "attributes" : {
                        "POSITION" : 0,
                        "NORMAL" : 1,
                        "TEXCOORD_0" : 2
                    },
                    "indices" : 3,
                    "material" : 0
                },
                {
                    "attributes" : {
                        "POSITION" : 4,
                        "NORMAL" : 5,
                        "TEXCOORD_0" : 6
                    },
                    "indices" : 7,
                    "material" : 1
                }
            ]
        }
    ],
    "textures" : [
        {
            "sampler" : 0,
            "source" : 0
        },
        {
            "sampler" : 0,
            "source" : 1
        },
        {
            "sampler" : 0,
            "source" : 1
        }
    ],
    "images" : [
        {
            "bufferView" : 4,
            "mimeType" : "image/png",
            "name" : "rdk$0200-0200-389DDBD5"
        },
        {
            "bufferView" : 9,
            "mimeType" : "image/png",
            "name" : "rdk$0200-0200-A2B2EF42"
        }
    ],
    "accessors" : [
        {
            "bufferView" : 0,
            "componentType" : 5126,
            "count" : 1550,
            "max" : [
                62.11643981933594,
                88.17528533935547,
                -16
            ],
            "min" : [
                -62.88996887207031,
                -86.69852447509766,
                -75.47483825683594
            ],
            "type" : "VEC3"
        },
        {
            "bufferView" : 1,
            "componentType" : 5126,
            "count" : 1550,
            "type" : "VEC3"
        },
        {
            "bufferView" : 2,
            "componentType" : 5126,
            "count" : 1550,
            "type" : "VEC2"
        },
        {
            "bufferView" : 3,
            "componentType" : 5123,
            "count" : 6948,
            "type" : "SCALAR"
        },
        {
            "bufferView" : 5,
            "componentType" : 5126,
            "count" : 659,
            "max" : [
                62.11629104614258,
                88.1791000366211,
                0.02625645324587822
            ],
            "min" : [
                -62.89510726928711,
                -86.6978530883789,
                -15.999998092651367
            ],
            "type" : "VEC3"
        },
        {
            "bufferView" : 6,
            "componentType" : 5126,
            "count" : 659,
            "type" : "VEC3"
        },
        {
            "bufferView" : 7,
            "componentType" : 5126,
            "count" : 659,
            "type" : "VEC2"
        },
        {
            "bufferView" : 8,
            "componentType" : 5123,
            "count" : 2010,
            "type" : "SCALAR"
        }
    ],
    "bufferViews" : [
        {
            "buffer" : 0,
            "byteLength" : 18600,
            "byteOffset" : 0
        },
        {
            "buffer" : 0,
            "byteLength" : 18600,
            "byteOffset" : 18600
        },
        {
            "buffer" : 0,
            "byteLength" : 12400,
            "byteOffset" : 37200
        },
        {
            "buffer" : 0,
            "byteLength" : 13896,
            "byteOffset" : 49600
        },
        {
            "buffer" : 0,
            "byteLength" : 853993,
            "byteOffset" : 63496
        },
        {
            "buffer" : 0,
            "byteLength" : 7908,
            "byteOffset" : 917492
        },
        {
            "buffer" : 0,
            "byteLength" : 7908,
            "byteOffset" : 925400
        },
        {
            "buffer" : 0,
            "byteLength" : 5272,
            "byteOffset" : 933308
        },
        {
            "buffer" : 0,
            "byteLength" : 4020,
            "byteOffset" : 938580
        },
        {
            "buffer" : 0,
            "byteLength" : 1022174,
            "byteOffset" : 942600
        }
    ],
    "samplers" : [
        {
            "magFilter" : 9729,
            "minFilter" : 9986
        }
    ],
    "buffers" : [
        {
            "byteLength" : 1964776,
            "uri" : "data:application/octet-stream;base64,"
        }
    ]
}
