<?xml version="1.0" encoding="utf-8"?>
<!-- Generator: Adobe Illustrator 24.3.0, SVG Export Plug-In . SVG Version: 6.00 Build 0)  -->
<svg version="1.1" xmlns="http://www.w3.org/2000/svg" xmlns:xlink="http://www.w3.org/1999/xlink" x="0px" y="0px"
	 viewBox="0 0 100 100" style="enable-background:new 0 0 100 100;" xml:space="preserve">
<style type="text/css">
	.st0{fill:#AFAFAF;}
	.st1{fill:#CCCCCC;}
	.st2{fill:none;stroke:#000000;stroke-width:0.25;stroke-linecap:round;stroke-linejoin:round;}
</style>
<g id="Make2D::Visible::Tangents">
</g>
<g id="Make2D::Visible::Curves">
</g>
<g id="Make2D::Visible::SceneSilhouetteCurves">
	<g id="XMLID_1_">
		<g>
			<path class="st0" d="M97.14,56.33c0,0.17-0.02,0.34-0.06,0.51c-0.04,0.17-0.1,0.34-0.18,0.49c-0.06,0.13-0.14,0.25-0.23,0.37
				c-0.12,0.17-0.27,0.32-0.43,0.46c-0.15,0.12-0.31,0.23-0.47,0.32L43.59,88.61c-0.16,0.09-0.33,0.17-0.5,0.24
				c-0.19,0.07-0.38,0.13-0.57,0.18c-0.16,0.04-0.33,0.07-0.5,0.1c-0.04,0.01-0.08,0.01-0.12,0.02c-0.21,0.02-0.43,0.04-0.64,0.04
				c-0.22,0-0.43-0.02-0.65-0.04c-0.06-0.01-0.12-0.02-0.18-0.03c-0.15-0.02-0.29-0.05-0.43-0.09c-0.2-0.05-0.39-0.11-0.57-0.18
				s-0.35-0.15-0.51-0.24L3.12,67.94c-0.17-0.1-0.32-0.21-0.47-0.33c-0.16-0.14-0.31-0.29-0.44-0.46c-0.08-0.11-0.16-0.23-0.22-0.36
				c-0.08-0.16-0.14-0.32-0.19-0.5c-0.04-0.16-0.06-0.33-0.06-0.51V65.4c0-0.01,0-0.02,0.01-0.03c0-0.01,0-0.02,0-0.04
				c0-0.02,0-0.04,0-0.07c0-0.02,0.01-0.03,0.01-0.05c0-0.02,0-0.05,0.01-0.08c0.02-0.09,0.04-0.18,0.07-0.26
				c0.03-0.09,0.07-0.17,0.11-0.25c0.05-0.08,0.1-0.16,0.15-0.23c0.22-0.3,0.52-0.53,0.83-0.71c0.03-0.03,0.08-0.03,0.12-0.02
				c0.04,0,0.08,0.02,0.11,0.04c-0.24,0.14-0.48,0.32-0.65,0.54c-0.18,0.23-0.3,0.49-0.3,0.79c0,0.29,0.12,0.56,0.3,0.78
				c0.17,0.22,0.41,0.4,0.65,0.54l10.98,6.34c0.18,0.15,0.38,0.3,0.59,0.44c0.26,0.17,0.52,0.34,0.79,0.5
				c0.6,0.37,1.21,0.71,1.83,1.07c0.61,0.35,1.22,0.71,1.84,1.06c2.46,1.43,4.93,2.85,7.39,4.27c2.47,1.43,4.94,2.85,7.4,4.27
				c0.62,0.36,1.23,0.71,1.84,1.06c0.62,0.36,1.22,0.71,1.86,1.06c0.28,0.16,0.56,0.31,0.86,0.45c0.3,0.15,0.61,0.29,0.94,0.42
				c0.18,0.06,0.35,0.12,0.54,0.18c0.18,0.06,0.38,0.1,0.58,0.14c0.09,0.02,0.18,0.03,0.27,0.04c0.08,0.02,0.17,0.02,0.26,0.03
				c0.08,0,0.17,0.01,0.25,0c0.09,0,0.17,0,0.26-0.01c0.18-0.01,0.36-0.04,0.53-0.08c0.17-0.03,0.33-0.08,0.49-0.12
				c0.14-0.05,0.28-0.1,0.42-0.15c0.13-0.06,0.26-0.11,0.39-0.17c0.25-0.11,0.49-0.24,0.72-0.36c0.27-0.14,0.53-0.29,0.78-0.43
				c0.26-0.15,0.51-0.29,0.76-0.44c0.5-0.29,1-0.58,1.5-0.87c2.03-1.17,4.05-2.34,6.08-3.51c2.02-1.17,4.05-2.33,6.07-3.5
				c2.03-1.17,4.05-2.34,6.08-3.51c2.02-1.17,4.05-2.34,6.07-3.51c2.03-1.17,4.05-2.34,6.08-3.51c1.01-0.58,2.02-1.17,3.04-1.75
				c1.01-0.58,2.02-1.17,3.03-1.75c0.1-0.06,0.21-0.12,0.32-0.19c0.14-0.08,0.29-0.16,0.44-0.25c0.17-0.1,0.33-0.19,0.5-0.29
				c0.08-0.05,0.17-0.1,0.25-0.14c0.14-0.08,0.27-0.16,0.4-0.23c0.12-0.07,0.24-0.14,0.36-0.21c0.25-0.15,0.5-0.29,0.75-0.45
				c0.22-0.13,0.43-0.27,0.63-0.42c0.1-0.08,0.2-0.15,0.3-0.23c0.02-0.02,0.04-0.04,0.06-0.06c0,0,0.01,0,0.01-0.01l3.99-2.31
				c0.02-0.01,0.04-0.02,0.06-0.03c0.07-0.02,0.13-0.05,0.2-0.08c0.21-0.08,0.4-0.17,0.6-0.27c0.19-0.09,0.38-0.19,0.56-0.29
				c0.37-0.2,0.71-0.4,1.06-0.6s0.7-0.4,1.04-0.61c0.17-0.11,0.34-0.21,0.51-0.33c0.16-0.11,0.32-0.23,0.48-0.35
				c0.06-0.05,0.12-0.1,0.17-0.15c0.03-0.02,0.06-0.05,0.09-0.07c0.09-0.08,0.17-0.16,0.24-0.25c0.08-0.09,0.15-0.18,0.21-0.28
				c0.03-0.04,0.05-0.09,0.07-0.13c0.04-0.07,0.07-0.14,0.09-0.21c0.01-0.02,0.01-0.04,0.01-0.06c0.04,0.15,0.06,0.29,0.06,0.44
				V56.33z"/>
			<path class="st1" d="M91.69,59.22l-3.99,2.31c0.07-0.06,0.14-0.13,0.2-0.2c0.1-0.1,0.19-0.21,0.26-0.32
				c0.04-0.07,0.07-0.13,0.1-0.2s0.06-0.14,0.08-0.22c0.01-0.02,0.01-0.05,0.01-0.07c0.02-0.05,0.02-0.09,0.02-0.14
				c0-0.01,0-0.02,0-0.02c0-0.01,0-0.01,0-0.01c0-0.01,0-0.01,0-0.02c0-0.21,0-0.43,0-0.64c0-0.13,0-0.25,0-0.38
				c0.09,0.03,0.18,0.06,0.27,0.09c0.19,0.05,0.39,0.1,0.59,0.13c0.1,0.01,0.19,0.03,0.28,0.04c0.09,0.01,0.18,0.01,0.27,0.01
				c0.09,0.01,0.18,0.01,0.27,0c0.09,0,0.18-0.01,0.27-0.02c0.18-0.02,0.35-0.05,0.53-0.08c0.2-0.05,0.39-0.1,0.57-0.17
				C91.52,59.28,91.6,59.25,91.69,59.22z"/>
			<path class="st1" d="M30.36,54.15c0.02,0.01,0.03,0.02,0.04,0.03c-0.25,0.14-0.51,0.29-0.76,0.43c-0.33,0.2-0.67,0.39-1.01,0.59
				c-0.34,0.19-0.67,0.39-1.01,0.58c-0.34,0.2-0.68,0.39-1.01,0.59c-0.07,0.04-0.13,0.07-0.2,0.12c-0.27,0.15-0.55,0.31-0.82,0.46
				c-0.25,0.15-0.52,0.3-0.78,0.46c-0.08,0.04-0.15,0.08-0.23,0.13c-0.34,0.19-0.67,0.39-1.01,0.58c-0.34,0.2-0.68,0.39-1.02,0.59
				c-0.33,0.19-0.67,0.39-1.01,0.59c-0.34,0.2-0.68,0.4-1.02,0.59c-0.34,0.2-0.68,0.4-1.03,0.61c-0.13,0.07-0.25,0.15-0.38,0.23
				c-0.21,0.12-0.43,0.24-0.64,0.37c-0.34,0.2-0.68,0.41-1.03,0.61c-0.07,0.05-0.15,0.09-0.21,0.13c-0.28,0.16-0.55,0.32-0.81,0.48
				c-0.33,0.19-0.69,0.41-1.03,0.62c-0.13,0.09-0.27,0.19-0.41,0.28c-0.11,0.08-0.22,0.17-0.33,0.26c-0.04,0.03-0.08,0.06-0.12,0.1
				c-0.03,0.02-0.05,0.04-0.08,0.06c-0.12,0.11-0.23,0.22-0.34,0.34c-0.11,0.12-0.21,0.25-0.3,0.38c-0.02,0.03-0.04,0.07-0.06,0.1
				s-0.04,0.06-0.06,0.1c-0.08,0.14-0.15,0.28-0.21,0.43c-0.06,0.15-0.11,0.31-0.14,0.46c0,0,0,0,0,0.01
				c-0.04,0.17-0.07,0.35-0.09,0.52c-0.02,0.17-0.04,0.35-0.05,0.52c0,0.03,0,0.06,0,0.09c0,0.15-0.01,0.3,0,0.45
				c-0.01,0.17-0.01,0.34-0.01,0.5c0,0.34,0,0.68,0,1.02c0,0.34,0,0.68,0,1.02c0,0.34,0,0.68,0,1.02c0,0.21,0,0.42,0,0.64
				c0,0.04,0,0.08,0.01,0.13c0,0.01,0,0.03,0,0.05c0.01,0.07,0.04,0.15,0.06,0.22l0.01,0.01c0,0.01,0,0.01,0,0.02c0,0,0,0,0.01,0
				c0,0.01,0,0.01,0,0.02c0.01,0.01,0.01,0.01,0.01,0.02l0.01,0.01c0,0.01,0,0.02,0.01,0.02c0,0.01,0,0.01,0,0.02
				c0.01,0,0.01,0.01,0.01,0.01c0,0.01,0,0.01,0,0.01c0.01,0,0.01,0.01,0.01,0.01c0,0.01,0.01,0.01,0.01,0.02c0,0,0,0.01,0.01,0.01
				c0,0.01,0,0.01,0.01,0.02c0.08,0.14,0.18,0.27,0.29,0.4c0.11,0.12,0.22,0.23,0.35,0.33c0.04,0.04,0.09,0.08,0.14,0.12L3.16,66.35
				c-0.24-0.14-0.48-0.32-0.65-0.54c-0.18-0.22-0.3-0.49-0.3-0.78c0-0.3,0.12-0.56,0.3-0.79c0.17-0.22,0.41-0.4,0.65-0.54
				l23.23-13.41c0,0.09,0,0.18,0,0.28c0,0.01,0,0.02,0,0.03v0.01c0,0.01,0,0.02,0,0.03v0.01c0,0.01,0,0.01,0,0.02
				c0,0.05,0,0.09,0.02,0.14c0,0.04,0,0.07,0.01,0.11c0.02,0.08,0.05,0.17,0.09,0.25c0.04,0.08,0.08,0.16,0.13,0.24
				c0.04,0.07,0.1,0.15,0.15,0.22c0.13,0.16,0.28,0.31,0.43,0.46c0.16,0.14,0.32,0.27,0.49,0.4c0.2,0.15,0.41,0.3,0.63,0.44
				c0.22,0.15,0.44,0.29,0.66,0.43C29.45,53.63,29.91,53.89,30.36,54.15z"/>
		</g>
		<g>
			<path class="st2" d="M87.62,53.38c0.04,0.05,0.09,0.1,0.13,0.15c0.04,0.05,0.08,0.11,0.11,0.16c0.08,0.11,0.14,0.23,0.19,0.35
				c0.05,0.11,0.09,0.23,0.13,0.35"/>
			<path class="st2" d="M60.52,37.74c-0.06-0.01-0.11-0.02-0.17-0.02c-0.06-0.01-0.11-0.01-0.17-0.01c-0.12,0-0.23,0-0.34,0.02
				c-0.12,0.01-0.23,0.03-0.34,0.05"/>
			<path class="st2" d="M54.61,16.84c0.11-0.05,0.22-0.09,0.33-0.13"/>
			<path class="st2" d="M52.58,17.79c0.16-0.07,0.32-0.15,0.48-0.23s0.32-0.15,0.48-0.23"/>
			<path class="st2" d="M49.76,19.17c0.31-0.15,0.62-0.31,0.93-0.46"/>
			<path class="st2" d="M41.1,23.94c0.46-0.26,0.99-0.56,1.38-0.79c0.59-0.35,1.19-0.69,1.79-1.03c0.31-0.18,0.61-0.35,0.91-0.52
				c0.31-0.17,0.61-0.34,0.91-0.5c0.3-0.17,0.61-0.34,0.91-0.5c0.15-0.08,0.3-0.16,0.46-0.24c0.15-0.08,0.3-0.16,0.45-0.24"/>
			<path class="st2" d="M27.32,33.79c0.03-0.09,0.07-0.17,0.1-0.26c0.06-0.11,0.12-0.22,0.19-0.33c0.08-0.13,0.16-0.25,0.26-0.37
				c0.1-0.14,0.21-0.27,0.33-0.39c0.07-0.07,0.13-0.13,0.2-0.2c0.03-0.03,0.07-0.06,0.1-0.1c0.04-0.03,0.07-0.06,0.11-0.1
				c0.16-0.13,0.31-0.26,0.47-0.39c0.18-0.14,0.35-0.27,0.53-0.4c0.04-0.03,0.09-0.06,0.14-0.1c0.04-0.03,0.09-0.06,0.13-0.09
				c0.1-0.07,0.19-0.14,0.29-0.2c0.28-0.2,0.57-0.39,0.85-0.58c0.29-0.19,0.58-0.39,0.87-0.58c0.57-0.39,1.15-0.77,1.73-1.15
				c0.29-0.2,0.58-0.39,0.87-0.58c0.29-0.19,0.58-0.38,0.87-0.56c0.29-0.19,0.59-0.37,0.88-0.56c0.29-0.18,0.58-0.36,0.87-0.54
				c0.3-0.18,0.59-0.36,0.89-0.54s0.6-0.36,0.89-0.54c0.3-0.17,0.6-0.35,0.9-0.52c0.29-0.18,0.59-0.35,0.89-0.52
				c0.06-0.04,0.13-0.08,0.2-0.12"/>
			<path class="st2" d="M13.94,64.63c0.02,0.02,0.04,0.03,0.06,0.04c0.03,0.02,0.05,0.03,0.08,0.05c0.08,0.05,0.16,0.1,0.23,0.14
				c0.11,0.07,0.22,0.13,0.34,0.2c0.13,0.08,0.27,0.16,0.41,0.24c0.17,0.1,0.34,0.19,0.5,0.28c0.09,0.05,0.18,0.11,0.27,0.16
				c0.05,0.02,0.1,0.05,0.14,0.08c0.05,0.02,0.1,0.05,0.15,0.08c0.4,0.23,0.81,0.45,1.21,0.68c0.57,0.32,1.14,0.64,1.71,0.96
				c0.56,0.32,1.13,0.64,1.7,0.96s1.13,0.64,1.7,0.96c0.57,0.33,1.13,0.65,1.7,0.97c0.56,0.33,1.13,0.65,1.69,0.98
				c0.57,0.33,1.13,0.65,1.7,0.98c0.56,0.32,1.13,0.65,1.69,0.98c0.56,0.32,1.13,0.65,1.69,0.98s1.13,0.65,1.69,0.98
				c0.56,0.33,1.12,0.67,1.69,1c0.56,0.33,1.12,0.66,1.68,1c0.28,0.16,0.56,0.33,0.84,0.49c0.28,0.17,0.56,0.34,0.84,0.5
				c0.18,0.11,0.35,0.21,0.53,0.31c0.08,0.05,0.17,0.11,0.26,0.16c0.08,0.05,0.17,0.1,0.25,0.15c0.32,0.18,0.64,0.37,0.96,0.56
				c0.27,0.15,0.55,0.31,0.82,0.47c0.11,0.06,0.22,0.12,0.33,0.18c0.08,0.04,0.16,0.08,0.24,0.13"/>
			<path class="st2" d="M62.54,18.13c0.25,0.16,0.49,0.3,0.74,0.44c0.5,0.29,1.05,0.63,1.52,0.98c0.24,0.18,0.48,0.37,0.69,0.58
				c0.12,0.11,0.23,0.22,0.34,0.35c0.09,0.1,0.17,0.21,0.25,0.33"/>
			<path class="st2" d="M3.16,63.7c-0.03-0.02-0.07-0.04-0.11-0.04c-0.04-0.01-0.09-0.01-0.12,0.02"/>
			<path class="st2" d="M87.62,53.38c-0.03-0.04-0.05-0.08-0.07-0.13c-0.02-0.02-0.03-0.05-0.05-0.07
				c-0.02-0.03-0.04-0.06-0.06-0.09c-0.09-0.13-0.19-0.26-0.31-0.39c-0.08-0.09-0.18-0.19-0.27-0.28c-0.11-0.1-0.22-0.19-0.34-0.28
				c-0.1-0.09-0.21-0.17-0.32-0.25c-0.11-0.08-0.2-0.15-0.31-0.22"/>
			<path class="st2" d="M41.11,87.48c0-0.6,0-1.2,0-1.8s0-1.2,0-1.8c0-0.3,0-0.6,0-0.9c0-0.15,0-0.31,0-0.46
				c0-0.15-0.01-0.29-0.01-0.44c0-0.08,0-0.16,0-0.24c0-0.07-0.01-0.15-0.01-0.23c0-0.14,0-0.29-0.01-0.43
				c0-0.09-0.01-0.19-0.01-0.28c0-0.08-0.01-0.17-0.01-0.25c-0.01-0.12-0.01-0.25-0.02-0.37"/>
			<path class="st2" d="M97.14,56.33c0-0.06,0-0.13-0.01-0.19"/>
			<path class="st2" d="M1.74,65.4c0-0.02,0-0.05,0.01-0.07"/>
			<path class="st2" d="M26.41,50.81c0.01,0.05,0.03,0.11,0.05,0.16c0.02,0.06,0.04,0.11,0.07,0.16c0.02,0.06,0.05,0.11,0.09,0.16
				c0.03,0.04,0.06,0.09,0.09,0.13c0.04,0.05,0.07,0.1,0.11,0.14c0.08,0.09,0.16,0.17,0.24,0.25c0.17,0.16,0.35,0.31,0.53,0.45
				c0.1,0.07,0.19,0.14,0.28,0.21c0.1,0.06,0.19,0.13,0.29,0.2c0.38,0.25,0.78,0.5,1.18,0.73c0.2,0.12,0.4,0.23,0.6,0.35
				c0.03,0.02,0.06,0.04,0.09,0.05"/>
			<line class="st2" x1="3.16" y1="63.7" x2="26.39" y2="50.29"/>
			<path class="st2" d="M26.41,36.34c0,0.04-0.01,0.08-0.01,0.13c0,0.07,0,0.14,0,0.21"/>
			<path class="st2" d="M27.32,33.79c-0.04,0.03-0.08,0.08-0.12,0.12c-0.02,0.02-0.04,0.05-0.06,0.07
				c-0.02,0.03-0.04,0.06-0.06,0.09c-0.05,0.06-0.1,0.13-0.14,0.2c-0.05,0.08-0.09,0.16-0.13,0.24c-0.08,0.17-0.15,0.36-0.21,0.55
				c-0.06,0.21-0.1,0.42-0.13,0.64c-0.02,0.17-0.04,0.34-0.05,0.51"/>
			<path class="st2" d="M3.16,66.35c-0.24-0.14-0.48-0.32-0.65-0.54c-0.18-0.22-0.3-0.49-0.3-0.78c0-0.3,0.12-0.56,0.3-0.79
				c0.17-0.22,0.41-0.4,0.65-0.54"/>
			<path class="st2" d="M35.95,38.77c0,0.09,0,0.18,0,0.27c0,0.12,0,0.24,0,0.36c0,0.3,0.01,0.59,0.01,0.89c0,0.12,0,0.25,0,0.37
				c0,0.06,0,0.12,0,0.19c0,0.06,0,0.12,0,0.19c0,0.26,0,0.52,0,0.78c0,0.12,0,0.25,0,0.37c0,0.13,0,0.26,0,0.38
				c0,0.26,0,0.51,0,0.77s0,0.51,0,0.76c0,0.26,0,0.51,0,0.77c0,0.25,0,0.51,0,0.76c0,0.13,0,0.26,0,0.38c0,0.13,0,0.25,0,0.38
				s0,0.26,0,0.39c0,0.13,0,0.26,0,0.38c0,0.25,0,0.5,0,0.75c0,0.14,0,0.27,0,0.4c0,0.13,0,0.25,0,0.38c0,0.13,0,0.25,0,0.38
				c0,0.12,0,0.25,0,0.37c0,0.26,0,0.51,0,0.77c0,0.25,0,0.5,0,0.75"/>
			<path class="st2" d="M96.67,35.41c0.04,0.07,0.07,0.14,0.09,0.21c0.01,0.03,0.02,0.05,0.03,0.08c0.02,0.05,0.04,0.1,0.06,0.15"/>
			<path class="st2" d="M96.67,35.41c0,0.01-0.01,0.01-0.01,0.01h-0.01c-0.01,0-0.02,0.01-0.03,0.01c-0.02,0.01-0.03,0.02-0.05,0.03
				c-0.02,0.01-0.04,0.02-0.07,0.03c-0.06,0.03-0.12,0.06-0.19,0.1c-0.08,0.05-0.17,0.1-0.26,0.14c-0.09,0.06-0.19,0.11-0.28,0.16
				c-0.11,0.07-0.22,0.13-0.32,0.19c-0.21,0.11-0.41,0.23-0.61,0.35c-0.2,0.11-0.4,0.23-0.6,0.35c-0.2,0.11-0.4,0.23-0.6,0.35
				c-0.2,0.11-0.4,0.23-0.6,0.35c-0.2,0.12-0.4,0.24-0.6,0.36c-0.12,0.07-0.23,0.13-0.34,0.2c-0.09,0.06-0.17,0.11-0.26,0.16"/>
			<path class="st2" d="M63.24,38.57c0-0.01-0.01-0.01-0.01-0.01"/>
			<path class="st2" d="M19.11,60.73c-0.55,0.33-1.09,0.66-1.64,0.98c-0.28,0.17-0.55,0.33-0.83,0.49c-0.27,0.16-0.55,0.33-0.81,0.5
				c-0.25,0.15-0.51,0.32-0.74,0.5c-0.21,0.16-0.41,0.32-0.59,0.52c-0.08,0.08-0.15,0.17-0.22,0.26c-0.06,0.08-0.11,0.16-0.16,0.25
				c-0.05,0.07-0.08,0.15-0.12,0.23c-0.02,0.05-0.04,0.11-0.06,0.17"/>
			<path class="st2" d="M21.54,59.3c-0.33,0.2-0.67,0.39-1,0.59c-0.35,0.21-0.7,0.41-1.05,0.61"/>
			<path class="st2" d="M24.58,57.54c-0.35,0.2-0.68,0.39-1.01,0.58"/>
			<path class="st2" d="M26.41,56.49c-0.53,0.3-1.07,0.61-1.6,0.92"/>
			<path class="st2" d="M30.4,54.18c-0.43,0.25-0.88,0.51-1.31,0.76c-0.15,0.09-0.31,0.18-0.46,0.26"/>
			<path class="st2" d="M35.72,51.11c-0.31,0.18-0.62,0.36-0.92,0.54c-0.37,0.21-0.75,0.42-1.11,0.63"/>
			<path class="st2" d="M37.74,49.94c-0.03,0.02-0.06,0.04-0.09,0.06c-0.31,0.17-0.61,0.35-0.92,0.52"/>
			<path class="st2" d="M43.82,46.43c-0.63,0.37-1.26,0.74-1.89,1.1c-0.48,0.27-0.95,0.55-1.43,0.82"/>
			<path class="st2" d="M46.86,44.68c-0.22,0.13-0.43,0.25-0.65,0.38c-0.46,0.26-0.92,0.52-1.38,0.79"/>
			<path class="st2" d="M50.49,42.58c-0.47,0.28-0.95,0.55-1.42,0.83c-0.48,0.27-0.96,0.55-1.43,0.82"/>
			<path class="st2" d="M54.82,40.12c-0.49,0.28-0.98,0.55-1.47,0.83c-0.47,0.27-0.95,0.54-1.43,0.81"/>
			<path class="st2" d="M58.74,38.01c-0.09,0.04-0.18,0.08-0.26,0.12c-0.12,0.05-0.24,0.11-0.35,0.17
				c-0.06,0.03-0.12,0.06-0.18,0.09c-0.07,0.03-0.13,0.06-0.19,0.09c-0.24,0.13-0.49,0.27-0.73,0.41c-0.24,0.13-0.49,0.27-0.73,0.41
				c-0.46,0.25-0.91,0.5-1.36,0.75"/>
			<path class="st2" d="M68.19,41.33c-0.28-0.16-0.56-0.32-0.84-0.48c-0.42-0.23-0.84-0.47-1.26-0.7"/>
			<path class="st2" d="M73.76,44.52c-0.62-0.36-1.24-0.72-1.87-1.08"/>
			<path class="st2" d="M36.49,85.59c0.28,0.17,0.57,0.33,0.85,0.49c0.06,0.03,0.13,0.07,0.19,0.1c0.07,0.04,0.13,0.08,0.2,0.11
				c0.13,0.07,0.27,0.14,0.4,0.21c0.14,0.07,0.28,0.14,0.41,0.21c0.15,0.07,0.29,0.13,0.44,0.2c0.07,0.03,0.15,0.06,0.23,0.09
				c0.07,0.03,0.15,0.06,0.23,0.09c0.16,0.07,0.33,0.12,0.5,0.17c0.18,0.06,0.36,0.1,0.55,0.14c0.02,0.01,0.05,0.01,0.07,0.01
				c0.02,0.01,0.05,0.01,0.07,0.02c0.06,0.01,0.11,0.01,0.16,0.02c0.11,0.02,0.21,0.03,0.32,0.03"/>
			<path class="st2" d="M34.35,84.36c0.41,0.24,0.82,0.47,1.22,0.71"/>
			<path class="st2" d="M17.56,74.66c0.15,0.09,0.3,0.17,0.45,0.26c0.29,0.17,0.59,0.34,0.88,0.51c0.12,0.07,0.23,0.14,0.35,0.21"/>
			<path class="st2" d="M13.24,71.52c0.01,0.02,0.02,0.05,0.03,0.07c0.01,0.04,0.03,0.07,0.05,0.1c0.01,0.02,0.02,0.04,0.03,0.06
				c0.01,0.01,0.02,0.03,0.03,0.05c0.09,0.13,0.2,0.25,0.31,0.37c0.06,0.05,0.12,0.11,0.19,0.17c0.06,0.05,0.12,0.11,0.19,0.16
				c0.13,0.11,0.27,0.21,0.41,0.31c0.07,0.04,0.14,0.09,0.21,0.14c0.07,0.05,0.14,0.1,0.22,0.14c0.14,0.1,0.29,0.19,0.44,0.28
				c0.3,0.19,0.6,0.36,0.9,0.54c0.17,0.1,0.35,0.2,0.53,0.31"/>
			<path class="st2" d="M13.2,71.37c0,0.03,0.02,0.07,0.03,0.11"/>
			<path class="st2" d="M41.11,87.48c0,0.04,0,0.07,0,0.1c0,0.02,0,0.04,0.01,0.05c0,0.01,0,0.02,0,0.03v0.01c0,0,0,0.01,0.01,0.01"
				/>
			<path class="st2" d="M88.37,60.35c0-0.01,0-0.01,0-0.02"/>
			<path class="st2" d="M41.11,87.48c0.1,0.01,0.2,0.01,0.29,0.01c0.05,0,0.1-0.01,0.15-0.01s0.1,0,0.14-0.01
				c0.1-0.01,0.19-0.02,0.28-0.03c0.09-0.02,0.18-0.03,0.27-0.05c0.16-0.03,0.33-0.08,0.49-0.13c0.03-0.01,0.07-0.02,0.11-0.04
				c0.04-0.01,0.07-0.02,0.11-0.03c0.07-0.03,0.15-0.06,0.22-0.08c0.27-0.11,0.53-0.23,0.78-0.36c0.06-0.03,0.12-0.06,0.18-0.09
				c0.06-0.03,0.12-0.06,0.18-0.09c0.12-0.07,0.24-0.13,0.35-0.2c0.23-0.12,0.45-0.25,0.68-0.38c0.22-0.13,0.44-0.26,0.66-0.38
				c0.44-0.26,0.89-0.52,1.33-0.77c1.98-1.14,3.96-2.29,5.94-3.43c1.98-1.14,3.96-2.29,5.94-3.43c1.97-1.14,3.95-2.28,5.93-3.43
				c1.98-1.14,3.96-2.28,5.94-3.42c1.98-1.14,3.96-2.29,5.93-3.43c1.98-1.14,3.96-2.28,5.94-3.43c0.5-0.29,1.01-0.58,1.51-0.87
				c0.25-0.14,0.5-0.29,0.75-0.43c0.25-0.15,0.5-0.29,0.75-0.44c0.13-0.07,0.26-0.14,0.38-0.22c0.13-0.07,0.25-0.15,0.38-0.22
				c0.12-0.08,0.24-0.16,0.37-0.24c0.12-0.08,0.23-0.16,0.35-0.25c0.12-0.08,0.23-0.17,0.33-0.26c0.11-0.1,0.21-0.19,0.29-0.3
				c0.05-0.05,0.09-0.11,0.13-0.16c0.03-0.06,0.06-0.12,0.09-0.18c0.02-0.03,0.03-0.06,0.04-0.09c0.01-0.01,0.01-0.03,0.01-0.04
				c0.01-0.02,0.01-0.03,0.02-0.05"/>
			<path class="st2" d="M13.2,71.37c0-0.09,0-0.17,0-0.26c0-0.49,0-0.99,0-1.47c0-0.58,0-1.16,0-1.73c0-0.15,0-0.29,0-0.44
				c0-0.14,0-0.28,0-0.43c0.01-0.28,0.02-0.58,0.05-0.86c0.02-0.15,0.05-0.3,0.08-0.45c0.04-0.13,0.08-0.26,0.13-0.39
				c0.06-0.15,0.14-0.3,0.24-0.44c0.04-0.05,0.08-0.1,0.13-0.15c0.03-0.04,0.07-0.08,0.11-0.12"/>
			<path class="st2" d="M41.04,80.28c0.06-0.03,0.13-0.07,0.19-0.1c0.09-0.04,0.18-0.08,0.27-0.13c0.21-0.11,0.43-0.22,0.65-0.34
				c0.12-0.06,0.24-0.13,0.36-0.19c0.06-0.04,0.12-0.07,0.18-0.11c0.06-0.03,0.13-0.07,0.19-0.1c0.13-0.08,0.26-0.15,0.38-0.23
				c0.07-0.03,0.13-0.07,0.2-0.11s0.13-0.08,0.2-0.12c0.26-0.15,0.53-0.31,0.8-0.47c0.27-0.16,0.53-0.32,0.8-0.48
				c0.54-0.32,1.07-0.64,1.61-0.96c0.48-0.29,0.97-0.57,1.45-0.86c0.49-0.28,0.97-0.57,1.46-0.85c0.48-0.28,0.96-0.56,1.45-0.84
				c0.48-0.28,0.97-0.56,1.45-0.84c0.97-0.56,1.94-1.12,2.91-1.68c0.49-0.28,0.97-0.56,1.46-0.84c0.48-0.28,0.97-0.56,1.45-0.84
				c0.49-0.28,0.97-0.56,1.46-0.84c0.48-0.28,0.97-0.56,1.45-0.84c0.49-0.28,0.97-0.56,1.46-0.84c0.49-0.28,0.97-0.56,1.46-0.84
				c0.48-0.28,0.97-0.56,1.45-0.84c0.49-0.28,0.97-0.56,1.46-0.84c0.48-0.28,0.97-0.56,1.45-0.84c0.49-0.29,0.97-0.57,1.46-0.85
				c0.48-0.28,0.97-0.56,1.45-0.84c0.49-0.28,0.98-0.56,1.46-0.84c0.49-0.28,0.97-0.56,1.46-0.84c0.48-0.28,0.97-0.56,1.45-0.84
				c0.49-0.28,0.97-0.56,1.46-0.84c0.49-0.28,0.97-0.56,1.46-0.84c1.02-0.59,1.89-1.08,2.92-1.66c0.6-0.34,1.2-0.68,1.8-1.02
				c0.3-0.16,0.61-0.33,0.91-0.5c0.15-0.08,0.3-0.17,0.45-0.25c0.15-0.09,0.3-0.17,0.45-0.25c0.28-0.16,0.56-0.32,0.85-0.48
				c0.12-0.07,0.24-0.15,0.37-0.22c0.05-0.03,0.11-0.07,0.17-0.1c0.05-0.03,0.1-0.06,0.15-0.09c0.09-0.06,0.17-0.11,0.26-0.17
				c0.06-0.04,0.13-0.08,0.19-0.13c0.05-0.03,0.09-0.07,0.13-0.1c0.02-0.01,0.03-0.03,0.05-0.04c0.01-0.01,0.02-0.02,0.03-0.03"/>
			<line class="st2" x1="14.14" y1="72.69" x2="3.16" y2="66.35"/>
			<path class="st2" d="M89.77,59.39c0-0.45,0-0.89,0-1.34c0-0.44,0-0.88,0-1.33c0-0.22,0-0.44,0-0.66c0-0.22,0-0.44,0-0.66
				c0-0.22,0-0.44,0-0.66c0-0.11,0-0.23,0.01-0.34c0-0.12,0-0.23,0-0.35c0.01-0.41,0.03-0.83,0.05-1.24
				c0.03-0.48,0.07-0.95,0.12-1.42c0.01-0.1,0.02-0.2,0.03-0.3c0-0.05,0.01-0.1,0.02-0.15c0-0.05,0.01-0.11,0.01-0.16
				c0.03-0.21,0.06-0.43,0.09-0.64c0.01-0.12,0.02-0.23,0.04-0.34c0.02-0.12,0.03-0.23,0.05-0.34c0.03-0.24,0.07-0.48,0.1-0.71
				c0.03-0.21,0.07-0.43,0.1-0.64c0.02-0.11,0.03-0.21,0.05-0.32c0.02-0.11,0.04-0.22,0.05-0.33c0.08-0.45,0.15-0.9,0.23-1.34
				c0.02-0.11,0.03-0.22,0.05-0.33c0.02-0.11,0.04-0.22,0.06-0.33c0.04-0.22,0.07-0.44,0.11-0.65c0.08-0.44,0.15-0.88,0.23-1.32
				c0.04-0.23,0.07-0.46,0.11-0.69c0.02-0.11,0.04-0.22,0.06-0.34c0.02-0.11,0.03-0.22,0.05-0.33c0.07-0.42,0.14-0.85,0.2-1.28
				c0.01-0.07,0.02-0.14,0.03-0.21c0.01-0.07,0.01-0.14,0.02-0.21c0.02-0.14,0.04-0.28,0.05-0.41c0.03-0.25,0.06-0.5,0.08-0.76
				c0.02-0.2,0.04-0.41,0.05-0.62c0.01-0.08,0.01-0.17,0.02-0.25c0-0.06,0-0.13,0-0.19"/>
			<path class="st2" d="M64.75,22.56c0.01-0.07,0.03-0.14,0.05-0.21c0.02-0.06,0.05-0.13,0.07-0.2c0.06-0.13,0.12-0.25,0.2-0.37
				c0.07-0.12,0.15-0.22,0.24-0.33"/>
			<path class="st2" d="M61.89,37.26c0,0.08,0,0.16-0.01,0.24"/>
			<path class="st2" d="M64.75,22.56c-0.07,0.08-0.12,0.17-0.18,0.26c-0.07,0.14-0.14,0.27-0.21,0.41
				c-0.08,0.16-0.16,0.33-0.22,0.51c-0.08,0.2-0.15,0.4-0.21,0.6c-0.1,0.3-0.18,0.6-0.25,0.91c-0.08,0.33-0.15,0.67-0.22,1
				c-0.06,0.32-0.12,0.64-0.18,0.96c-0.05,0.33-0.11,0.66-0.17,0.98c-0.05,0.33-0.11,0.65-0.16,0.98c-0.03,0.16-0.06,0.32-0.09,0.49
				c-0.02,0.16-0.05,0.32-0.08,0.48c-0.05,0.33-0.11,0.65-0.16,0.98c-0.03,0.16-0.05,0.33-0.08,0.49c-0.03,0.16-0.05,0.31-0.08,0.47
				c-0.05,0.34-0.1,0.67-0.15,1c-0.01,0.08-0.02,0.17-0.03,0.25c-0.01,0.08-0.02,0.16-0.04,0.24c-0.02,0.15-0.04,0.31-0.06,0.46
				c-0.04,0.34-0.09,0.69-0.12,1.03c-0.04,0.31-0.07,0.62-0.09,0.93c-0.01,0.09-0.01,0.18-0.02,0.27c0,0.04-0.01,0.09-0.01,0.13"/>
			<path class="st2" d="M91.84,38.2c-0.06-0.07-0.13-0.13-0.19-0.19c-0.09-0.09-0.19-0.18-0.28-0.26c-0.24-0.22-0.48-0.42-0.73-0.62
				c-0.07-0.06-0.14-0.11-0.21-0.17c-0.07-0.05-0.14-0.11-0.21-0.16c-0.16-0.12-0.31-0.23-0.46-0.34c-0.16-0.12-0.33-0.24-0.49-0.35
				c-0.08-0.06-0.16-0.12-0.25-0.18c-0.08-0.05-0.16-0.11-0.25-0.17c-0.27-0.19-0.54-0.37-0.81-0.56c-0.27-0.18-0.54-0.37-0.81-0.55
				c-0.54-0.37-1.08-0.74-1.63-1.1c-0.55-0.37-1.1-0.73-1.65-1.09c-0.56-0.36-1.08-0.69-1.65-1.04c-0.29-0.17-0.57-0.35-0.85-0.52
				c-0.28-0.16-0.56-0.33-0.85-0.5c-0.28-0.16-0.56-0.33-0.84-0.49c-0.28-0.17-0.56-0.33-0.85-0.49c-0.4-0.24-1.3-0.76-1.7-0.99
				c-0.29-0.16-0.57-0.32-0.85-0.49c-0.29-0.16-0.57-0.32-0.86-0.48c-0.29-0.16-0.57-0.32-0.86-0.48s-0.58-0.32-0.87-0.47
				c-0.15-0.08-0.29-0.15-0.44-0.23c-0.14-0.08-0.28-0.15-0.43-0.23c-0.29-0.15-0.58-0.29-0.87-0.44c-0.29-0.15-0.59-0.29-0.88-0.44
				c-0.3-0.14-0.59-0.28-0.89-0.42c-0.29-0.15-0.59-0.29-0.88-0.43c-0.3-0.14-0.59-0.27-0.89-0.41c-0.21-0.1-0.42-0.2-0.63-0.3
				c-0.2-0.1-0.41-0.19-0.61-0.29c-0.2-0.08-0.39-0.17-0.59-0.25c-0.17-0.08-0.35-0.15-0.53-0.22c-0.15-0.05-0.3-0.11-0.46-0.15
				c-0.06-0.02-0.13-0.04-0.2-0.06c-0.06-0.01-0.12-0.03-0.18-0.04c-0.05-0.01-0.1-0.02-0.15-0.03c-0.05,0-0.09-0.01-0.13-0.01
				s-0.07-0.01-0.11-0.01c-0.02,0-0.05,0-0.07,0.01"/>
			<line class="st2" x1="91.69" y1="59.22" x2="87.7" y2="61.53"/>
			<path class="st2" d="M64.81,22.03c-0.28,0.14-0.56,0.28-0.85,0.42c-0.32,0.15-0.63,0.31-0.95,0.46
				c-0.32,0.16-0.65,0.31-0.97,0.47c-0.33,0.16-0.66,0.32-0.98,0.47c-0.31,0.16-0.62,0.31-0.93,0.46c-0.32,0.15-0.63,0.31-0.94,0.46
				c-0.31,0.16-0.62,0.32-0.93,0.48c-0.31,0.16-0.62,0.32-0.93,0.48c-0.31,0.16-0.61,0.32-0.92,0.49c-0.3,0.16-0.61,0.33-0.91,0.5
				s-0.61,0.34-0.91,0.51c-0.31,0.17-0.61,0.35-0.92,0.52c-0.3,0.17-0.6,0.34-0.9,0.52c-0.3,0.17-0.6,0.34-0.91,0.52
				c-0.3,0.17-0.6,0.35-0.9,0.52c-0.3,0.18-0.6,0.35-0.9,0.52c-0.3,0.18-0.6,0.35-0.9,0.53c-0.3,0.17-0.6,0.35-0.9,0.53
				c-0.3,0.18-0.6,0.35-0.89,0.54c-0.3,0.18-0.6,0.36-0.9,0.54c-0.29,0.18-0.59,0.37-0.88,0.55c-0.29,0.19-0.58,0.38-0.88,0.56
				c-0.29,0.19-0.58,0.38-0.87,0.57c-0.3,0.2-0.59,0.39-0.88,0.58c-0.29,0.2-0.58,0.39-0.87,0.58c-0.29,0.2-0.58,0.39-0.87,0.58
				c-0.29,0.2-0.58,0.39-0.87,0.59c-0.29,0.19-0.57,0.38-0.86,0.58c-0.09,0.06-0.18,0.12-0.28,0.18c-0.08,0.06-0.17,0.12-0.26,0.17
				c-0.18,0.12-0.36,0.24-0.53,0.35c-0.17,0.11-0.34,0.22-0.51,0.33c-0.08,0.05-0.17,0.1-0.25,0.15c-0.08,0.05-0.16,0.1-0.24,0.15
				c-0.29,0.18-0.58,0.36-0.87,0.53c-0.11,0.07-0.23,0.14-0.35,0.2c-0.08,0.05-0.17,0.1-0.25,0.15"/>
			<path class="st2" d="M89.78,59.58c0-0.01,0-0.01,0-0.02c-0.01-0.01-0.01-0.02-0.01-0.02c0-0.02,0-0.04,0-0.05
				c0-0.04,0-0.07,0-0.1"/>
			<path class="st2" d="M35.95,38.77c-0.07-0.04-0.14-0.07-0.2-0.1c-0.09-0.04-0.18-0.09-0.26-0.13c-0.22-0.11-0.44-0.22-0.66-0.34
				c-0.36-0.19-0.73-0.39-1.09-0.59c-0.37-0.2-0.73-0.4-1.09-0.61c-0.09-0.05-0.18-0.1-0.27-0.15c-0.09-0.05-0.18-0.11-0.26-0.16
				c-0.19-0.1-0.37-0.21-0.55-0.31c-0.18-0.1-0.36-0.21-0.54-0.31c-0.18-0.11-0.36-0.21-0.54-0.31c-0.36-0.21-0.72-0.42-1.07-0.63
				c-0.19-0.11-0.39-0.23-0.58-0.34c-0.16-0.1-0.33-0.2-0.49-0.3c-0.13-0.08-0.26-0.17-0.39-0.25c-0.1-0.07-0.2-0.13-0.3-0.2
				c-0.08-0.05-0.15-0.1-0.22-0.16c-0.02-0.01-0.04-0.03-0.07-0.05c-0.02-0.02-0.03-0.03-0.05-0.04"/>
			<path class="st2" d="M90.32,59.56c-0.09,0.01-0.18,0.02-0.27,0.02c-0.09,0.01-0.18,0.01-0.27,0"/>
			<path class="st2" d="M89.23,59.53c-0.2-0.03-0.4-0.08-0.59-0.13c-0.09-0.03-0.18-0.06-0.27-0.09"/>
			<path class="st2" d="M16.78,74.22c0.21,0.11,0.41,0.23,0.62,0.35c0.05,0.03,0.11,0.06,0.16,0.09c0.15,0.09,0.3,0.18,0.45,0.27
				c0.41,0.23,0.82,0.47,1.23,0.71c0.82,0.47,1.65,0.95,2.47,1.42c1.64,0.95,3.28,1.9,4.92,2.84c1.65,0.95,3.29,1.9,4.93,2.85
				c0.82,0.47,1.64,0.95,2.46,1.42c0.11,0.06,0.22,0.13,0.33,0.19c0.3,0.17,0.6,0.34,0.91,0.52c0.1,0.06,0.21,0.12,0.31,0.19
				c0.1,0.05,0.2,0.11,0.3,0.17c0.21,0.12,0.41,0.23,0.62,0.35"/>
			<path class="st2" d="M59.17,37.86c0.1-0.03,0.22-0.06,0.33-0.08c0.01-0.01,0.01-0.01,0.02-0.01c0.13-0.03,0.26-0.05,0.39-0.07
				c0.07,0,0.13-0.01,0.19-0.01c0.1-0.01,0.19-0.01,0.28-0.01c0.06,0,0.13,0,0.19,0c0.08,0.01,0.15,0.01,0.22,0.02
				c0.07,0.01,0.13,0.02,0.2,0.03c0.09,0.02,0.18,0.03,0.27,0.06c0.08,0.01,0.15,0.03,0.22,0.05c0.13,0.04,0.26,0.08,0.39,0.12
				c0.09,0.04,0.17,0.07,0.26,0.1c0.02,0,0.04,0.01,0.05,0.02c0.02,0,0.03,0.01,0.05,0.02c0.03,0.01,0.06,0.02,0.09,0.03l0.01,0.01
				c0.03,0.01,0.07,0.02,0.1,0.04c0.01,0.01,0.03,0.01,0.05,0.02c0.01,0.01,0.03,0.02,0.05,0.02c0.03,0.02,0.07,0.03,0.1,0.05
				c0.01,0,0.02,0.01,0.04,0.02c0.02,0,0.04,0.01,0.06,0.02c0.03,0.02,0.07,0.04,0.1,0.05c0.02,0.01,0.05,0.03,0.07,0.04
				c0.01,0,0.02,0.01,0.03,0.01c0.01,0,0.01,0.01,0.02,0.01c0.02,0.01,0.05,0.02,0.07,0.04h0.01c0,0,0.01,0,0.01,0.01
				c0.03,0.01,0.06,0.03,0.09,0.04c0.04,0.02,0.07,0.04,0.1,0.05"/>
			<path class="st2" d="M88.27,54.79c0.05,0.27,0.07,0.55,0.08,0.8c0.01,0.18,0.02,0.36,0.02,0.53c0,0.17,0,0.35,0,0.51
				c0,0.34,0,0.68,0,1.02s0,0.68,0,1.02c0,0.21,0,0.43,0,0.64c0,0.13,0,0.25,0,0.38c0,0.21,0,0.43,0,0.64"/>
			<path class="st2" d="M30.41,54.18c0.04-0.03,0.09-0.06,0.13-0.08c0.04-0.03,0.08-0.05,0.12-0.07c0.33-0.2,0.67-0.39,1.01-0.59
				c0.34-0.19,0.67-0.39,1.01-0.58c0.34-0.2,0.68-0.39,1.01-0.58c0.34-0.2,0.68-0.39,1.02-0.59c0.33-0.19,0.67-0.39,1.01-0.58
				c0.08-0.05,0.16-0.09,0.24-0.14c0.26-0.15,0.51-0.3,0.77-0.45c0.34-0.19,0.68-0.39,1.01-0.58c0.34-0.2,0.68-0.39,1.02-0.59
				c0.33-0.19,0.67-0.39,1.01-0.58c0.25-0.14,0.49-0.28,0.73-0.42c0.09-0.06,0.19-0.11,0.28-0.17c0.34-0.19,0.68-0.39,1.01-0.58
				c0.34-0.2,0.68-0.39,1.02-0.59c0.33-0.19,0.67-0.39,1.01-0.58c0.34-0.2,0.67-0.39,1.01-0.58c0.34-0.2,0.68-0.39,1.01-0.59
				c0.34-0.19,0.68-0.39,1.02-0.58c0.25-0.15,0.52-0.3,0.78-0.45c0.08-0.05,0.15-0.09,0.23-0.14c0.34-0.19,0.67-0.39,1.01-0.58
				c0.34-0.2,0.68-0.39,1.01-0.59c0.2-0.11,0.4-0.23,0.6-0.34c0.14-0.08,0.28-0.16,0.42-0.24c0.33-0.19,0.67-0.39,1.01-0.58
				c0.33-0.19,0.67-0.39,1.01-0.58c0.33-0.19,0.67-0.38,1-0.57c0.3-0.17,0.59-0.33,0.89-0.49c0.04-0.02,0.08-0.05,0.12-0.07
				c0.33-0.19,0.66-0.38,1-0.56c0.33-0.19,0.66-0.38,1-0.57c0.16-0.09,0.33-0.18,0.5-0.28c0.1-0.06,0.21-0.11,0.32-0.16
				c0.06-0.04,0.13-0.08,0.2-0.11c0.16-0.09,0.34-0.17,0.52-0.25c0.08-0.04,0.17-0.07,0.26-0.11c0.09-0.03,0.18-0.07,0.28-0.1
				c0.05-0.02,0.1-0.03,0.15-0.05"/>
			<path class="st2" d="M13.19,71.24c0-0.22,0-0.43,0-0.64c0-0.34,0-0.68,0-1.02c0-0.34,0-0.68,0-1.02c0-0.34,0-0.68,0-1.02
				c0-0.16,0-0.33,0.01-0.5c-0.01-0.15,0-0.3,0-0.45c0-0.03,0-0.06,0-0.09c0.01-0.17,0.03-0.35,0.05-0.52
				c0.02-0.17,0.05-0.35,0.09-0.52c0-0.01,0-0.01,0-0.01c0.03-0.15,0.08-0.31,0.14-0.46c0.06-0.15,0.13-0.29,0.21-0.43
				c0.02-0.04,0.04-0.07,0.06-0.1s0.04-0.07,0.06-0.1c0.09-0.13,0.19-0.26,0.3-0.38c0.11-0.12,0.22-0.23,0.34-0.34
				c0.03-0.02,0.05-0.04,0.08-0.06c0.04-0.04,0.08-0.07,0.12-0.1c0.11-0.09,0.22-0.18,0.33-0.26c0.14-0.09,0.28-0.19,0.41-0.28
				c0.34-0.21,0.7-0.43,1.03-0.62c0.26-0.16,0.53-0.32,0.81-0.48c0.06-0.04,0.14-0.08,0.21-0.13c0.35-0.2,0.69-0.41,1.03-0.61
				c0.21-0.13,0.43-0.25,0.64-0.37c0.13-0.08,0.25-0.16,0.38-0.23c0.35-0.21,0.69-0.41,1.03-0.61c0.34-0.19,0.68-0.39,1.02-0.59
				c0.34-0.2,0.68-0.4,1.01-0.59c0.34-0.2,0.68-0.39,1.02-0.59c0.34-0.19,0.67-0.39,1.01-0.58c0.08-0.05,0.15-0.09,0.23-0.13
				c0.26-0.16,0.53-0.31,0.78-0.46c0.27-0.15,0.55-0.31,0.82-0.46c0.07-0.05,0.13-0.08,0.2-0.12c0.33-0.2,0.67-0.39,1.01-0.59
				c0.34-0.19,0.67-0.39,1.01-0.58c0.34-0.2,0.68-0.39,1.01-0.59c0.25-0.14,0.51-0.29,0.76-0.43"/>
			<path class="st2" d="M88.34,60.59c-0.02,0.08-0.05,0.15-0.08,0.22s-0.06,0.13-0.1,0.2c-0.07,0.11-0.16,0.22-0.26,0.32
				c-0.06,0.07-0.13,0.14-0.2,0.2c0,0.01-0.01,0.01-0.01,0.01c-0.02,0.02-0.04,0.04-0.06,0.06c-0.1,0.08-0.2,0.15-0.3,0.23
				c-0.2,0.15-0.41,0.29-0.63,0.42c-0.25,0.16-0.5,0.3-0.75,0.45c-0.12,0.07-0.24,0.14-0.36,0.21c-0.13,0.07-0.26,0.15-0.4,0.23
				c-0.08,0.04-0.17,0.09-0.25,0.14c-0.17,0.1-0.33,0.19-0.5,0.29c-0.15,0.09-0.3,0.17-0.44,0.25c-0.11,0.07-0.22,0.13-0.32,0.19
				c-1.01,0.58-2.02,1.17-3.03,1.75c-1.02,0.58-2.03,1.17-3.04,1.75c-2.03,1.17-4.05,2.34-6.08,3.51c-2.02,1.17-4.05,2.34-6.07,3.51
				c-2.03,1.17-4.05,2.34-6.08,3.51c-2.02,1.17-4.05,2.33-6.07,3.5c-2.03,1.17-4.05,2.34-6.08,3.51c-0.5,0.29-1,0.58-1.5,0.87
				c-0.25,0.15-0.5,0.29-0.76,0.44c-0.25,0.14-0.51,0.29-0.78,0.43c-0.23,0.12-0.47,0.25-0.72,0.36c-0.13,0.06-0.26,0.11-0.39,0.17
				c-0.14,0.05-0.28,0.1-0.42,0.15c-0.16,0.04-0.32,0.09-0.49,0.12c-0.17,0.04-0.35,0.07-0.53,0.08c-0.09,0.01-0.17,0.01-0.26,0.01
				c-0.08,0.01-0.17,0-0.25,0"/>
			<path class="st2" d="M88.37,60.35c0,0,0,0,0,0.01c0,0,0,0.01,0,0.02c0,0.05,0,0.09-0.02,0.14c0,0.02,0,0.05-0.01,0.07"/>
			<path class="st2" d="M13.19,71.24c0,0.04,0,0.08,0.01,0.13"/>
			<path class="st2" d="M82.27,49.48c0.26,0.16,0.52,0.31,0.76,0.45c0.42,0.25,0.83,0.5,1.25,0.74c0.4,0.24,0.83,0.5,1.23,0.75
				c0.13,0.08,0.26,0.16,0.38,0.25c0.05,0.03,0.09,0.06,0.14,0.09c0.16,0.11,0.33,0.23,0.48,0.35c0.04,0.03,0.08,0.06,0.12,0.09
				c0.11,0.09,0.23,0.19,0.34,0.29c0.1,0.09,0.2,0.19,0.3,0.3c0.08,0.08,0.16,0.17,0.23,0.26c0.06,0.07,0.12,0.14,0.17,0.22
				c0.03,0.04,0.05,0.08,0.08,0.12s0.05,0.08,0.07,0.12c0.01,0.01,0.02,0.03,0.02,0.04c0.02,0.02,0.03,0.04,0.04,0.06
				c0.08,0.14,0.14,0.3,0.2,0.45c0.04,0.11,0.08,0.22,0.1,0.33c0.02,0.05,0.03,0.1,0.04,0.15c0.02,0.09,0.04,0.17,0.05,0.25"/>
			<path class="st2" d="M40.6,87.61c-0.2-0.04-0.4-0.08-0.58-0.14c-0.19-0.06-0.36-0.12-0.54-0.18c-0.33-0.13-0.64-0.27-0.94-0.42
				c-0.3-0.14-0.58-0.29-0.86-0.45c-0.64-0.35-1.24-0.7-1.86-1.06c-0.61-0.35-1.22-0.7-1.84-1.06c-2.46-1.42-4.93-2.84-7.4-4.27
				c-2.46-1.42-4.93-2.84-7.39-4.27c-0.62-0.35-1.23-0.71-1.84-1.06c-0.62-0.36-1.23-0.7-1.83-1.07c-0.27-0.16-0.53-0.33-0.79-0.5
				c-0.21-0.14-0.41-0.29-0.59-0.44c-0.05-0.04-0.1-0.08-0.14-0.12c-0.13-0.1-0.24-0.21-0.35-0.33c-0.11-0.13-0.21-0.26-0.29-0.4"/>
			<path class="st2" d="M30.03,53.8c0.17,0.1,0.34,0.2,0.51,0.3"/>
			<path class="st2" d="M26.39,50.57c0-0.1,0-0.19,0-0.28c0-0.06,0-0.11,0-0.16s0-0.11,0-0.16c0-0.34,0-0.68,0-1.02s0-0.68,0-1.02
				s0-0.68,0-1.02s0-0.68,0-1.02c0-0.35,0-0.7,0-1.04c0-0.36,0-0.72,0-1.07c0-0.38,0-0.76,0-1.13c0-0.4,0-0.79,0-1.19
				c0-0.41,0-0.82,0-1.23c0-0.43,0-0.85,0-1.28s0-0.86,0-1.28c0-0.22,0-0.44,0-0.66c0-0.11,0-0.22,0.01-0.33
				c0-0.11,0-0.22,0.01-0.34c0-0.04,0-0.08,0.01-0.13c0.01-0.27,0.04-0.57,0.09-0.86c0.01-0.12,0.04-0.24,0.07-0.36
				c0.03-0.16,0.08-0.32,0.13-0.48c0.05-0.16,0.12-0.33,0.19-0.48c0.01-0.03,0.03-0.06,0.04-0.09c0.01-0.02,0.02-0.05,0.04-0.07
				c0.01-0.02,0.02-0.05,0.03-0.07c0.05-0.09,0.1-0.17,0.15-0.26c0.07-0.11,0.15-0.22,0.23-0.33c0.02-0.03,0.04-0.06,0.07-0.09
				c0.03-0.04,0.05-0.07,0.08-0.1c0-0.01,0-0.01,0.01-0.01c0.02-0.03,0.05-0.07,0.08-0.1c0.03-0.04,0.07-0.08,0.1-0.12
				c0.05-0.05,0.1-0.11,0.15-0.16c0.09-0.09,0.18-0.18,0.28-0.27c0.04-0.04,0.08-0.08,0.13-0.12c0.19-0.17,0.38-0.33,0.57-0.48
				c0.18-0.14,0.37-0.28,0.55-0.41c0.45-0.32,0.94-0.65,1.38-0.95c0.47-0.31,0.93-0.62,1.39-0.93c0.47-0.31,0.93-0.62,1.4-0.92
				c0.12-0.09,0.24-0.16,0.34-0.23c0.36-0.24,0.71-0.46,1.05-0.68c0.47-0.3,0.93-0.6,1.4-0.89c0.46-0.29,0.93-0.57,1.39-0.85
				c0.38-0.23,0.76-0.46,1.13-0.67c0.09-0.06,0.17-0.11,0.26-0.16c0.46-0.27,0.93-0.54,1.39-0.81c0.11-0.07,0.23-0.13,0.34-0.19
				c0.07-0.05,0.15-0.09,0.22-0.13c0.27-0.16,0.55-0.32,0.82-0.48c0.46-0.26,0.92-0.53,1.38-0.8c0.46-0.26,0.92-0.52,1.39-0.79
				c0.16-0.09,0.33-0.18,0.49-0.27c0.3-0.17,0.59-0.34,0.89-0.5c0.31-0.17,0.62-0.34,0.93-0.5c0.16-0.09,0.31-0.17,0.46-0.25
				c0.15-0.08,0.3-0.16,0.45-0.23c0.32-0.17,0.63-0.33,0.94-0.49c0.3-0.16,0.61-0.31,0.91-0.46c0.16-0.08,0.31-0.16,0.47-0.24
				c0.15-0.08,0.31-0.15,0.46-0.22c0.31-0.16,0.61-0.3,0.92-0.45c0.33-0.16,0.65-0.32,0.97-0.47c0.14-0.07,0.27-0.14,0.4-0.2
				c0.18-0.09,0.37-0.18,0.56-0.26c0.04-0.03,0.09-0.05,0.14-0.07c0.22-0.11,0.46-0.22,0.69-0.32c0.08-0.03,0.16-0.07,0.24-0.1
				c0.1-0.05,0.22-0.09,0.33-0.13c0.15-0.06,0.3-0.12,0.45-0.17"/>
			<line class="st2" x1="26.39" y1="50.61" x2="26.39" y2="50.6"/>
			<path class="st2" d="M30.41,54.18H30.4c-0.01-0.01-0.02-0.02-0.04-0.03c-0.45-0.26-0.91-0.52-1.36-0.79
				c-0.22-0.14-0.44-0.28-0.66-0.43c-0.22-0.14-0.43-0.29-0.63-0.44c-0.17-0.13-0.33-0.26-0.49-0.4c-0.15-0.15-0.3-0.3-0.43-0.46
				c-0.05-0.07-0.11-0.15-0.15-0.22c-0.05-0.08-0.09-0.16-0.13-0.24"/>
			<path class="st2" d="M65.2,39.65c0.2,0.11,0.39,0.22,0.58,0.32c0.1,0.06,0.21,0.12,0.31,0.18c0.3,0.17,0.6,0.34,0.9,0.51
				c0.4,0.23,0.81,0.44,1.2,0.67c0.01,0,0.01,0.01,0.02,0.01c0.41,0.23,0.82,0.47,1.23,0.7c0.41,0.23,0.82,0.46,1.22,0.7
				c0.41,0.23,0.82,0.47,1.23,0.7c0.41,0.24,0.83,0.48,1.24,0.71c0.21,0.12,0.42,0.25,0.63,0.37c0.2,0.11,0.4,0.23,0.6,0.34
				c0.41,0.24,0.82,0.48,1.23,0.72c0.41,0.23,0.82,0.47,1.23,0.71c0.41,0.24,0.83,0.48,1.24,0.72c0.41,0.24,0.82,0.48,1.24,0.72
				c0.41,0.24,0.83,0.49,1.24,0.73c0.42,0.25,0.83,0.49,1.25,0.74c0.17,0.1,0.33,0.19,0.48,0.28"/>
			<path class="st2" d="M13.2,71.37c0,0.01,0,0.03,0,0.05"/>
			<path class="st2" d="M13.36,71.84c-0.01-0.01-0.01-0.01-0.01-0.02c-0.01,0-0.01-0.01-0.01-0.01c0-0.01-0.01-0.01-0.01-0.02
				c0,0,0-0.01-0.01-0.01c0,0,0,0,0-0.01c0,0,0-0.01-0.01-0.01c0-0.01,0-0.01,0-0.02c-0.01,0-0.01-0.01-0.01-0.02l-0.01-0.01
				c0-0.01,0-0.01-0.01-0.02c0-0.01,0-0.01,0-0.02c-0.01,0-0.01,0-0.01,0c0-0.01,0-0.01,0-0.02l-0.01-0.01
				c-0.02-0.07-0.05-0.15-0.06-0.22"/>
			<path class="st2" d="M41.13,87.68c-0.09-0.01-0.18-0.01-0.26-0.03c-0.09-0.01-0.18-0.02-0.27-0.04"/>
			<path class="st2" d="M3.12,67.94c-0.17-0.1-0.32-0.21-0.47-0.33c-0.16-0.14-0.31-0.29-0.44-0.46c-0.08-0.11-0.16-0.23-0.22-0.36
				c-0.08-0.16-0.14-0.32-0.19-0.5c-0.04-0.16-0.06-0.33-0.06-0.51"/>
			<path class="st2" d="M13.2,71.42c0.01,0.02,0.01,0.04,0.03,0.06c0,0.01,0,0.03,0.01,0.04"/>
			<path class="st2" d="M13.2,71.11c-0.01,0.04-0.01,0.08-0.01,0.13"/>
			<path class="st2" d="M26.39,50.57c0,0.01,0,0.02,0,0.03"/>
			<path class="st2" d="M26.51,51.17c-0.04-0.08-0.07-0.17-0.09-0.25c-0.01-0.04-0.01-0.07-0.01-0.11
				c-0.02-0.05-0.02-0.09-0.02-0.14c0-0.01,0-0.01,0-0.02"/>
			<path class="st2" d="M63.24,38.57c0,0,0,0,0.01,0c0,0,0.01,0,0.01,0.01c0.01,0,0.02,0.01,0.02,0.01
				c0.02,0.01,0.04,0.02,0.06,0.03c0.41,0.21,0.83,0.45,1.22,0.67c0.22,0.12,0.43,0.24,0.64,0.36"/>
			<path class="st2" d="M26.39,50.61c0,0.01,0,0.02,0,0.03"/>
			<path class="st2" d="M61.87,37.96c0-0.15,0-0.31,0.01-0.46c0-0.05,0-0.09,0-0.14c0-0.03,0-0.07,0.01-0.1
				c0.01-0.29,0.02-0.57,0.05-0.87c0-0.08,0-0.16,0.01-0.24c0.02-0.32,0.04-0.64,0.08-0.95c0.01-0.15,0.02-0.3,0.04-0.43
				c0.06-0.52,0.12-1.05,0.2-1.57c0.08-0.57,0.16-1.15,0.25-1.72c0.09-0.61,0.19-1.21,0.29-1.82c0.1-0.62,0.21-1.24,0.31-1.86
				c0.03-0.16,0.05-0.31,0.07-0.45c0.08-0.46,0.17-0.94,0.25-1.41c0.06-0.29,0.12-0.59,0.19-0.88c0.06-0.28,0.13-0.56,0.21-0.84
				c0.06-0.21,0.13-0.43,0.2-0.64c0.02-0.04,0.03-0.09,0.05-0.14c0.02-0.06,0.04-0.12,0.07-0.17c0.02-0.05,0.04-0.1,0.06-0.15
				c0.02-0.04,0.03-0.09,0.05-0.13c0.02-0.04,0.04-0.09,0.06-0.13c0.02-0.04,0.04-0.08,0.06-0.11c0.06-0.12,0.12-0.24,0.19-0.36
				c0.08-0.12,0.15-0.24,0.23-0.36c0.01-0.01,0.02-0.01,0.02-0.02c0.1-0.14,0.21-0.28,0.33-0.41c0.03-0.04,0.07-0.08,0.11-0.11
				c0.01-0.01,0.02-0.03,0.04-0.04c0.1-0.1,0.2-0.2,0.32-0.3"/>
			<path class="st2" d="M65.63,21.15c0.14-0.13,0.3-0.24,0.45-0.34c0.03-0.02,0.06-0.04,0.09-0.06c0.17-0.11,0.33-0.21,0.49-0.31
				c0.12-0.07,0.24-0.13,0.35-0.2c0.13-0.07,0.26-0.15,0.4-0.23c0.14-0.08,0.29-0.16,0.44-0.23c0.16-0.08,0.32-0.15,0.48-0.22
				c0.19-0.07,0.38-0.13,0.57-0.17c0.15-0.03,0.3-0.05,0.44-0.07c0.01,0,0.01,0,0.02,0c0.04,0,0.08,0,0.12-0.01
				c0.04,0,0.08,0,0.12,0s0.08,0,0.12,0c0.11,0,0.23,0.01,0.34,0.02c0.03,0.01,0.07,0.01,0.11,0.02c0.03,0,0.07,0.01,0.1,0.01
				c0.04,0.01,0.07,0.01,0.11,0.02c0.11,0.02,0.21,0.04,0.31,0.07c0.1,0.03,0.2,0.05,0.3,0.08c0.18,0.06,0.35,0.12,0.52,0.18
				c0.14,0.06,0.29,0.11,0.42,0.17c0.42,0.17,0.85,0.38,1.24,0.56c0.41,0.19,0.82,0.38,1.23,0.57c0.41,0.2,0.82,0.39,1.23,0.59
				c0.41,0.2,0.82,0.4,1.24,0.6c0.41,0.21,0.82,0.42,1.24,0.63c0.41,0.22,0.83,0.44,1.24,0.67c0.41,0.22,0.83,0.45,1.24,0.69
				c0.41,0.23,0.82,0.46,1.23,0.7c0.42,0.24,0.83,0.47,1.24,0.71c0.41,0.24,0.82,0.47,1.23,0.71c0.41,0.24,0.82,0.48,1.24,0.73
				c0.41,0.24,0.82,0.49,1.24,0.74c0.41,0.25,0.83,0.51,1.24,0.77c0.42,0.26,0.83,0.53,1.25,0.8c0.41,0.28,0.83,0.55,1.24,0.83
				c0.41,0.28,0.83,0.56,1.24,0.84c0.41,0.29,0.83,0.57,1.24,0.85c0.4,0.28,0.83,0.57,1.23,0.87c0.22,0.16,0.44,0.33,0.65,0.51
				c0.17,0.13,0.33,0.27,0.49,0.42c0.21,0.2,0.41,0.41,0.6,0.64c0.1,0.11,0.19,0.23,0.28,0.36c0.04,0.05,0.08,0.11,0.12,0.17
				c0,0.01,0.01,0.02,0.02,0.04c0.01,0.01,0.02,0.02,0.03,0.04c0.01,0.01,0.02,0.03,0.03,0.04c0.01,0.02,0.02,0.03,0.03,0.05"/>
			<line class="st2" x1="26.39" y1="50.64" x2="26.39" y2="50.65"/>
			<path class="st2" d="M97.07,55.57c-0.02,0.07-0.05,0.14-0.09,0.21c-0.02,0.04-0.04,0.09-0.07,0.13c-0.06,0.1-0.13,0.19-0.21,0.28
				c-0.07,0.09-0.15,0.17-0.24,0.25c-0.03,0.02-0.06,0.05-0.09,0.07c-0.05,0.05-0.11,0.1-0.17,0.15c-0.16,0.12-0.32,0.24-0.48,0.35
				c-0.17,0.12-0.34,0.22-0.51,0.33c-0.34,0.21-0.69,0.41-1.04,0.61s-0.69,0.4-1.06,0.6c-0.18,0.1-0.37,0.2-0.56,0.29
				c-0.2,0.1-0.39,0.19-0.6,0.27c-0.07,0.03-0.13,0.06-0.2,0.08c-0.02,0.01-0.04,0.02-0.06,0.03c-0.09,0.03-0.17,0.06-0.27,0.09
				c-0.18,0.07-0.37,0.12-0.57,0.17c-0.18,0.03-0.35,0.06-0.53,0.08"/>
			<path class="st2" d="M89.78,59.58c-0.09,0-0.18,0-0.27-0.01c-0.09-0.01-0.18-0.03-0.28-0.04"/>
			<path class="st2" d="M55.39,16.54c0.01-0.01,0.02-0.01,0.04-0.02c0.04-0.01,0.07-0.02,0.11-0.03c0.04-0.02,0.08-0.03,0.12-0.04
				c0.04-0.01,0.08-0.03,0.12-0.04c0.15-0.04,0.3-0.08,0.45-0.11c0.14-0.03,0.29-0.06,0.44-0.08c0.16-0.03,0.34-0.04,0.51-0.05
				c0.07-0.01,0.13-0.01,0.2-0.01c0.11,0,0.22,0,0.33,0.01c0.11,0,0.21,0.01,0.32,0.03c0.06,0,0.13,0.01,0.19,0.02
				c0.19,0.03,0.37,0.08,0.55,0.12c0.16,0.04,0.31,0.09,0.46,0.14c0.14,0.04,0.28,0.1,0.41,0.15c0.16,0.06,0.32,0.13,0.48,0.2"/>
			<line class="st2" x1="38.92" y1="88.61" x2="3.12" y2="67.94"/>
			<line class="st2" x1="95.77" y1="58.48" x2="43.59" y2="88.61"/>
			<path class="st2" d="M97.14,56.33c0,0.17-0.02,0.34-0.06,0.51c-0.04,0.17-0.1,0.34-0.18,0.49c-0.06,0.13-0.14,0.25-0.23,0.37
				c-0.12,0.17-0.27,0.32-0.43,0.46c-0.15,0.12-0.31,0.23-0.47,0.32"/>
			<line class="st2" x1="1.74" y1="65.78" x2="1.74" y2="65.4"/>
			<line class="st2" x1="97.14" y1="55.95" x2="97.14" y2="56.33"/>
			<path class="st2" d="M41.86,89.24c-0.1,0.06-0.21,0.1-0.31,0.13c-0.11,0.02-0.21,0.04-0.32,0.04s-0.21-0.02-0.32-0.04
				c-0.11-0.03-0.21-0.07-0.31-0.13c-0.06-0.03-0.12-0.07-0.17-0.12"/>
			<path class="st2" d="M42.02,89.13c-0.05,0.04-0.11,0.08-0.16,0.11"/>
			<path class="st2" d="M96.46,35.01c0.03,0.05,0.05,0.09,0.08,0.14c0.01,0.02,0.02,0.04,0.03,0.06s0.02,0.04,0.03,0.06
				c0.03,0.04,0.05,0.08,0.07,0.13c0,0,0,0,0,0.01c0.01,0.01,0.01,0.01,0.02,0.03c0.02,0.04,0.03,0.07,0.05,0.12
				c0.01,0.02,0.02,0.04,0.02,0.06c0.01,0.02,0.02,0.04,0.03,0.06c0.02,0.05,0.04,0.11,0.06,0.17c0.01,0.04,0.03,0.09,0.05,0.14"/>
			<path class="st2" d="M96.9,35.99c0.02,0.08,0.04,0.16,0.07,0.24c0.01,0.03,0.01,0.06,0.02,0.1c0.01,0.03,0.02,0.07,0.03,0.1
				c0.01,0.04,0.02,0.07,0.02,0.11c0.01,0.01,0.01,0.01,0.01,0.02c0.02,0.1,0.04,0.21,0.06,0.31c0.04,0.23,0.07,0.45,0.1,0.67
				c0,0.02,0,0.03,0,0.05c0.05,0.53,0.07,1.08,0.07,1.58c0.01,0.55-0.01,1.12-0.02,1.66c-0.01,0.55-0.02,1.1-0.03,1.65
				c-0.01,0.22-0.01,0.43-0.02,0.63c0,0.34-0.01,0.66-0.02,0.98c0,0.5-0.01,1.01-0.02,1.53c-0.01,0.46-0.02,0.93-0.02,1.41
				c-0.01,0.41-0.01,0.83-0.01,1.26c-0.01,0.38-0.01,0.76-0.01,1.14c0,0.35,0,0.71,0,1.07c0,0.34,0,0.68,0,1.02s0,0.68,0,1.02
				s0,0.68,0,1.02s0,0.68,0,1.02c0,0.21,0,0.42,0,0.64"/>
			<path class="st2" d="M43.59,88.61c-0.16,0.09-0.33,0.17-0.5,0.24c-0.19,0.07-0.38,0.13-0.57,0.18c-0.16,0.04-0.33,0.07-0.5,0.1
				c-0.04,0.01-0.08,0.01-0.12,0.02c-0.21,0.02-0.43,0.04-0.64,0.04c-0.22,0-0.43-0.02-0.65-0.04c-0.06-0.01-0.12-0.02-0.18-0.03
				c-0.15-0.02-0.29-0.05-0.43-0.09c-0.2-0.05-0.39-0.11-0.57-0.18s-0.35-0.15-0.51-0.24"/>
			<line class="st2" x1="2.93" y1="63.68" x2="26.39" y2="50.13"/>
			<path class="st2" d="M1.74,65.4c0-0.01,0-0.02,0.01-0.03c0-0.01,0-0.02,0-0.04c0-0.02,0-0.04,0-0.07c0-0.02,0.01-0.03,0.01-0.05
				c0-0.02,0-0.05,0.01-0.08c0.02-0.09,0.04-0.18,0.07-0.26c0.03-0.09,0.07-0.17,0.11-0.25c0.05-0.08,0.1-0.16,0.15-0.23
				c0.22-0.3,0.52-0.53,0.83-0.71"/>
			<path class="st2" d="M97.08,55.51c0.04,0.15,0.06,0.29,0.06,0.44"/>
			<path class="st2" d="M97.13,55.23c0,0.01,0,0.01,0,0.02s0,0.01,0,0.02c0,0.01,0,0.01,0,0.02c-0.01,0-0.01,0.01-0.01,0.01
				s0,0,0,0.01c0,0,0,0.01,0,0.02c0,0,0,0.01,0,0.02c-0.01,0.05-0.02,0.1-0.04,0.15v0.01c0,0.02,0,0.04-0.01,0.06"/>
			<path class="st2" d="M60.12,16.83c0.33,0.15,0.66,0.32,0.97,0.49c0.49,0.26,0.99,0.55,1.45,0.81c0.47,0.27,0.97,0.56,1.44,0.85
				c0.26,0.17,0.55,0.35,0.81,0.54c0.16,0.11,0.33,0.24,0.49,0.36c0.1,0.08,0.19,0.16,0.29,0.25c0.09,0.08,0.18,0.16,0.26,0.25
				c0.04,0.03,0.07,0.07,0.11,0.1c0.05,0.05,0.09,0.11,0.14,0.16c0.03,0.03,0.06,0.07,0.09,0.11"/>
		</g>
	</g>
</g>
</svg>
